<svg xmlns="http://www.w3.org/2000/svg" version="1.1" xmlns:xlink="http://www.w3.org/1999/xlink" xmlns:svgjs="http://svgjs.dev/svgjs" width="2000" height="439" viewBox="0 0 2000 439"><g transform="matrix(1,0,0,1,-1.2112696095522324,-1.2686552501225776)"><svg viewBox="0 0 396 87" data-background-color="#ffffff" preserveAspectRatio="xMidYMid meet" height="439" width="2000" xmlns="http://www.w3.org/2000/svg" xmlns:xlink="http://www.w3.org/1999/xlink"><g id="tight-bounds" transform="matrix(1,0,0,1,0.24008861730862918,0.25141914979650437)"><svg viewBox="0 0 395.52 86.49679220973782" height="86.49679220973782" width="395.52"><g><svg viewBox="0 0 395.52 86.49679220973782" height="86.49679220973782" width="395.52"><g><svg viewBox="0 0 395.52 86.49679220973782" height="86.49679220973782" width="395.52"><g id="textblocktransform"><svg viewBox="0 0 395.52 86.49679220973782" height="86.49679220973782" width="395.52" id="textblock"><g><svg viewBox="0 0 395.52 86.49679220973782" height="86.49679220973782" width="395.52"><path d="M394.594 18.552C392.735 9.574 387.435 7.078 387.435 7.078 371.165-2.17 350.86-0.177 332.619 1.152 300.414 1.206 268.339 3.181 236.208 4.24 168.767 4.402 100.749 1.744 33.643 8.299 27.339 10.31-6.54 8.694 1.121 19.701 3.129 24.28 10.456 29.362 10.232 33.564 11.236 34.3 12.631 32.612 13.226 33.671 15.309 36.527 18.711 35.18 21.501 36.868 17.614 41.375 20.403 45.128 23.062 49.06 18.377 50.084 12.371 49.599 9.675 52.993 9.396 55.453 7.89 54.986 6.235 54.878 5.026 54.806 2.59 55.076 2.999 55.848 4.394 58.488-1.594 60.014 2.162 62.6-0.422 65.401 3.948 67.825 3.353 70.86 3.278 71.47 3.687 71.991 4.338 72.135 7.22 72.907 3.018 74.415 3.464 76.049 33.029 87.218 65.104 79.497 95.394 84.632 103.259 81.041 97.346 85.907 100.489 85.153 102.943 84.273 104.728 87.919 107.499 85.854 107.927 85.261 107.276 83.86 108.8 84.13 109.6 84.273 110.307 84.237 110.418 83.411 110.586 82.172 109.117 82.945 108.726 82.298 112.947 79.03 111.906 86.805 115.866 86.482 115.68 85.53 114.528 84.166 116.889 84.345 119.232 82.98 119.306 81.849 121.389 84.92 121.463 85.584 121.835 86.051 122.43 86.374 128.938 83.034 135.409 87.559 142.233 86.051 146.417 84.399 150.433 86.949 154.672 86.32 156.16 85.818 157.666 84.92 159.098 86.428 176.632 86.751 195.319 85.405 211.943 86.482 256.364 84.471 303.836 87.308 350.674 84.65 361.719 83.627 373.192 82.172 383.958 81.005 383.958 81.005 392.679 77.809 392.679 63.444S394.538 50.874 394.817 39.436C395.096 27.997 396.398 27.53 394.538 18.552Z" opacity="1" fill="#113f67" data-fill-palette-color="tertiary"></path><g transform="matrix(1,0,0,1,55.76832,26.230666666666668)"><svg width="283.98335999999995" viewBox="3 -37.65 320.37 38.4" height="34.03545887640448" data-palette-color="#ffffff"><path d="M3-34.55L9.35-34.55 9.35 0 3 0 3-34.55ZM27.55-27.15Q30.4-27.15 32.05-25.1 33.7-23.05 33.7-19.6L33.7-19.6 33.7 0 27.55 0 27.55-18.9Q27.55-20.8 27.02-21.63 26.5-22.45 25.5-22.45L25.5-22.45Q23.4-22.45 21.35-18.5L21.35-18.5 21.35 0 15.2 0 15.2-26.45 20.55-26.45 21-23Q22.35-25.1 23.87-26.13 25.4-27.15 27.55-27.15L27.55-27.15ZM50.4-5L52.55-1.2Q50.1 0.75 46.8 0.75L46.8 0.75Q43.35 0.75 41.55-1.23 39.75-3.2 39.75-6.6L39.75-6.6 39.75-22 36.65-22 36.65-26.45 39.75-26.45 39.75-32.3 45.9-33.05 45.9-26.45 50.9-26.45 50.3-22 45.9-22 45.9-6.6Q45.9-4.2 47.95-4.2L47.95-4.2Q48.6-4.2 49.1-4.38 49.6-4.55 50.4-5L50.4-5ZM73.94-13.85Q73.94-13.4 73.79-11.3L73.79-11.3 60.14-11.3Q60.34-7.2 61.57-5.58 62.79-3.95 65.04-3.95L65.04-3.95Q66.59-3.95 67.84-4.48 69.09-5 70.54-6.15L70.54-6.15 73.09-2.65Q69.59 0.75 64.69 0.75L64.69 0.75Q59.49 0.75 56.72-2.85 53.94-6.45 53.94-13L53.94-13Q53.94-19.55 56.59-23.35 59.24-27.15 64.09-27.15L64.09-27.15Q68.74-27.15 71.34-23.78 73.94-20.4 73.94-13.85L73.94-13.85ZM67.94-15.3L67.94-15.65Q67.94-19.4 67.04-21.13 66.14-22.85 64.14-22.85L64.14-22.85Q62.29-22.85 61.32-21.18 60.34-19.5 60.14-15.3L60.14-15.3 67.94-15.3ZM89.89-27.1Q91.04-27.1 91.94-26.75L91.94-26.75 90.94-20.85Q89.94-21.1 89.09-21.1L89.09-21.1Q87.19-21.1 86.09-19.45 84.99-17.8 84.39-14.55L84.39-14.55 84.39 0 78.24 0 78.24-26.45 83.59-26.45 84.04-21.85Q85.89-27.1 89.89-27.1L89.89-27.1ZM113.64-13.85Q113.64-13.4 113.49-11.3L113.49-11.3 99.84-11.3Q100.04-7.2 101.26-5.58 102.49-3.95 104.74-3.95L104.74-3.95Q106.29-3.95 107.54-4.48 108.79-5 110.24-6.15L110.24-6.15 112.79-2.65Q109.29 0.75 104.39 0.75L104.39 0.75Q99.19 0.75 96.41-2.85 93.64-6.45 93.64-13L93.64-13Q93.64-19.55 96.29-23.35 98.94-27.15 103.79-27.15L103.79-27.15Q108.44-27.15 111.04-23.78 113.64-20.4 113.64-13.85L113.64-13.85ZM107.64-15.3L107.64-15.65Q107.64-19.4 106.74-21.13 105.84-22.85 103.84-22.85L103.84-22.85Q101.99-22.85 101.01-21.18 100.04-19.5 99.84-15.3L99.84-15.3 107.64-15.3ZM125.29-27.15Q129.99-27.15 133.24-24.05L133.24-24.05 130.89-20.7Q129.49-21.7 128.24-22.2 126.99-22.7 125.69-22.7L125.69-22.7Q124.24-22.7 123.41-21.93 122.59-21.15 122.59-19.8L122.59-19.8Q122.59-18.45 123.51-17.63 124.44-16.8 127.24-15.7L127.24-15.7Q130.69-14.35 132.34-12.5 133.99-10.65 133.99-7.55L133.99-7.55Q133.99-3.7 131.29-1.48 128.59 0.75 124.44 0.75L124.44 0.75Q121.74 0.75 119.46-0.23 117.19-1.2 115.49-2.95L115.49-2.95 118.49-6.25Q121.29-3.8 124.19-3.8L124.19-3.8Q125.84-3.8 126.79-4.67 127.74-5.55 127.74-7.1L127.74-7.1Q127.74-8.25 127.34-8.97 126.94-9.7 125.94-10.33 124.94-10.95 122.94-11.7L122.94-11.7Q119.49-13.05 118.01-14.85 116.54-16.65 116.54-19.45L116.54-19.45Q116.54-22.8 118.91-24.98 121.29-27.15 125.29-27.15L125.29-27.15ZM145.18-27.15Q149.88-27.15 153.13-24.05L153.13-24.05 150.78-20.7Q149.38-21.7 148.13-22.2 146.88-22.7 145.58-22.7L145.58-22.7Q144.13-22.7 143.31-21.93 142.48-21.15 142.48-19.8L142.48-19.8Q142.48-18.45 143.41-17.63 144.33-16.8 147.13-15.7L147.13-15.7Q150.58-14.35 152.23-12.5 153.88-10.65 153.88-7.55L153.88-7.55Q153.88-3.7 151.18-1.48 148.48 0.75 144.33 0.75L144.33 0.75Q141.63 0.75 139.36-0.23 137.08-1.2 135.38-2.95L135.38-2.95 138.38-6.25Q141.18-3.8 144.08-3.8L144.08-3.8Q145.73-3.8 146.68-4.67 147.63-5.55 147.63-7.1L147.63-7.1Q147.63-8.25 147.23-8.97 146.83-9.7 145.83-10.33 144.83-10.95 142.83-11.7L142.83-11.7Q139.38-13.05 137.91-14.85 136.43-16.65 136.43-19.45L136.43-19.45Q136.43-22.8 138.81-24.98 141.18-27.15 145.18-27.15L145.18-27.15ZM176.58-13.85Q176.58-13.4 176.43-11.3L176.43-11.3 162.78-11.3Q162.98-7.2 164.21-5.58 165.43-3.95 167.68-3.95L167.68-3.95Q169.23-3.95 170.48-4.48 171.73-5 173.18-6.15L173.18-6.15 175.73-2.65Q172.23 0.75 167.33 0.75L167.33 0.75Q162.13 0.75 159.36-2.85 156.58-6.45 156.58-13L156.58-13Q156.58-19.55 159.23-23.35 161.88-27.15 166.73-27.15L166.73-27.15Q171.38-27.15 173.98-23.78 176.58-20.4 176.58-13.85L176.58-13.85ZM170.58-15.3L170.58-15.65Q170.58-19.4 169.68-21.13 168.78-22.85 166.78-22.85L166.78-22.85Q164.93-22.85 163.96-21.18 162.98-19.5 162.78-15.3L162.78-15.3 170.58-15.3ZM193.23-27.15Q196.08-27.15 197.73-25.1 199.38-23.05 199.38-19.6L199.38-19.6 199.38 0 193.23 0 193.23-18.9Q193.23-20.8 192.7-21.63 192.18-22.45 191.18-22.45L191.18-22.45Q189.08-22.45 187.03-18.5L187.03-18.5 187.03 0 180.88 0 180.88-26.45 186.23-26.45 186.68-23Q188.03-25.1 189.55-26.13 191.08-27.15 193.23-27.15L193.23-27.15ZM226.98-26.45L232.68-26.45 228.13 0 220.63 0 217.68-20.85 214.78 0 207.33 0 202.68-26.45 208.63-26.45 211.33-4.6 214.68-26.45 220.93-26.45 224.13-4.6 226.98-26.45ZM245.57-27.15Q250.57-27.15 253.35-23.65 256.12-20.15 256.12-13.25L256.12-13.25Q256.12-6.65 253.32-2.95 250.52 0.75 245.57 0.75L245.57 0.75Q240.62 0.75 237.82-2.88 235.02-6.5 235.02-13.25L235.02-13.25Q235.02-19.95 237.82-23.55 240.62-27.15 245.57-27.15L245.57-27.15ZM245.57-22.5Q243.42-22.5 242.42-20.38 241.42-18.25 241.42-13.25L241.42-13.25Q241.42-8.2 242.42-6.08 243.42-3.95 245.57-3.95L245.57-3.95Q247.72-3.95 248.72-6.08 249.72-8.2 249.72-13.25L249.72-13.25Q249.72-18.3 248.72-20.4 247.72-22.5 245.57-22.5L245.57-22.5ZM270.17-27.15Q272.32-27.15 274.07-26.43 275.82-25.7 277.42-24.15L277.42-24.15 274.77-20.65Q273.67-21.55 272.7-21.98 271.72-22.4 270.57-22.4L270.57-22.4Q268.32-22.4 267.17-20.28 266.02-18.15 266.02-13.1L266.02-13.1Q266.02-8.2 267.2-6.2 268.37-4.2 270.57-4.2L270.57-4.2Q271.67-4.2 272.57-4.6 273.47-5 274.67-5.85L274.67-5.85 277.42-2.3Q274.22 0.75 270.27 0.75L270.27 0.75Q265.17 0.75 262.35-2.73 259.52-6.2 259.52-13L259.52-13Q259.52-17.4 260.82-20.6 262.12-23.8 264.55-25.48 266.97-27.15 270.17-27.15L270.17-27.15ZM292.82-27.15Q295.67-27.15 297.32-25.1 298.97-23.05 298.97-19.6L298.97-19.6 298.97 0 292.82 0 292.82-18.9Q292.82-20.8 292.29-21.63 291.77-22.45 290.77-22.45L290.77-22.45Q288.67-22.45 286.62-18.5L286.62-18.5 286.62 0 280.47 0 280.47-37 286.62-37.65 286.62-23.3Q287.87-25.25 289.34-26.2 290.82-27.15 292.82-27.15L292.82-27.15ZM323.37-13.85Q323.37-13.4 323.22-11.3L323.22-11.3 309.57-11.3Q309.77-7.2 310.99-5.58 312.22-3.95 314.47-3.95L314.47-3.95Q316.02-3.95 317.27-4.48 318.52-5 319.97-6.15L319.97-6.15 322.52-2.65Q319.02 0.75 314.12 0.75L314.12 0.75Q308.92 0.75 306.14-2.85 303.37-6.45 303.37-13L303.37-13Q303.37-19.55 306.02-23.35 308.67-27.15 313.52-27.15L313.52-27.15Q318.17-27.15 320.77-23.78 323.37-20.4 323.37-13.85L323.37-13.85ZM317.37-15.3L317.37-15.65Q317.37-19.4 316.47-21.13 315.57-22.85 313.57-22.85L313.57-22.85Q311.72-22.85 310.74-21.18 309.77-19.5 309.57-15.3L309.57-15.3 317.37-15.3Z" opacity="1" transform="matrix(1,0,0,1,0,0)" fill="#ffffff" class="wordmark-text-0" data-fill-palette-color="quaternary" id="text-0"></path></svg></g></svg></g></svg></g></svg></g><g></g></svg></g><defs></defs></svg><rect width="395.52" height="86.49679220973782" fill="none" stroke="none" visibility="hidden"></rect></g></svg></g></svg>